<?xml version="1.0" encoding="UTF-8" standalone="no"?>
<svg
   xmlns:dc="http://purl.org/dc/elements/1.1/"
   xmlns:cc="http://creativecommons.org/ns#"
   xmlns:rdf="http://www.w3.org/1999/02/22-rdf-syntax-ns#"
   xmlns:svg="http://www.w3.org/2000/svg"
   xmlns="http://www.w3.org/2000/svg"
   xmlns:sodipodi="http://sodipodi.sourceforge.net/DTD/sodipodi-0.dtd"
   xmlns:inkscape="http://www.inkscape.org/namespaces/inkscape"
   width="210mm"
   height="297mm"
   viewBox="0 0 210 297"
   version="1.1"
   id="svg8"
   inkscape:version="1.0.2-2 (e86c870879, 2021-01-15)"
   sodipodi:docname="map-features.svg">
  <defs
     id="defs2" />
  <sodipodi:namedview
     id="base"
     pagecolor="#ffffff"
     bordercolor="#666666"
     borderopacity="1.0"
     inkscape:pageopacity="0.0"
     inkscape:pageshadow="2"
     inkscape:zoom="2.8237469"
     inkscape:cx="400"
     inkscape:cy="502.04096"
     inkscape:document-units="mm"
     inkscape:current-layer="layer1"
     inkscape:document-rotation="0"
     showgrid="false"
     inkscape:window-width="1855"
     inkscape:window-height="1058"
     inkscape:window-x="59"
     inkscape:window-y="-6"
     inkscape:window-maximized="1" />
  <metadata
     id="metadata5">
    <rdf:RDF>
      <cc:Work
         rdf:about="">
        <dc:format>image/svg+xml</dc:format>
        <dc:type
           rdf:resource="http://purl.org/dc/dcmitype/StillImage" />
        <dc:title></dc:title>
      </cc:Work>
    </rdf:RDF>
  </metadata>
  <g
     inkscape:label="Layer 1"
     inkscape:groupmode="layer"
     id="layer1">
    <rect
       style="fill:#000000;fill-opacity:1;stroke-width:1.99972;stroke-linecap:round;stroke-linejoin:round"
       id="rect851"
       width="65.99044"
       height="77.91642"
       x="71.820923"
       y="88.252281"
       sodipodi:insensitive="true" />
    <circle
       style="fill:#ffffff;fill-opacity:1;stroke-width:1.99972;stroke-linecap:round;stroke-linejoin:round"
       id="path833"
       cx="103.45208"
       cy="137.05415"
       r="0.5291667"
       inkscape:export-xdpi="96.000244"
       inkscape:export-ydpi="96.000244" />
    <path
       id="circle835"
       style="fill:#ffffff;fill-opacity:1;stroke-width:7.558;stroke-linecap:round;stroke-linejoin:round"
       d="M 408.25 512.5 A 5.9999999 5.9999999 0 0 0 402.25 518.5 A 5.9999999 5.9999999 0 0 0 408.25 524.5 A 5.9999999 5.9999999 0 0 0 414.25 518.5 A 5.9999999 5.9999999 0 0 0 408.25 512.5 z M 408.18945 514.5 A 4.0000002 4.0000002 0 0 1 408.25 514.5 A 4.0000002 4.0000002 0 0 1 412.25 518.5 A 4.0000002 4.0000002 0 0 1 408.25 522.5 A 4.0000002 4.0000002 0 0 1 404.25 518.5 A 4.0000002 4.0000002 0 0 1 408.18945 514.5 z "
       transform="scale(0.26458333)"
       inkscape:export-xdpi="96.000244"
       inkscape:export-ydpi="96.000244" />
    <g
       id="g886"
       inkscape:export-xdpi="96.000244"
       inkscape:export-ydpi="96.000244">
      <path
         id="path856"
         style="fill:#ffffff;fill-opacity:1;stroke-width:1.99972;stroke-linecap:round;stroke-linejoin:round"
         d="m 113.85271,135.27926 a 1.5875,1.5875 0 0 0 -1.5875,1.5875 1.5875,1.5875 0 0 0 1.5875,1.5875 1.5875,1.5875 0 0 0 1.5875,-1.5875 1.5875,1.5875 0 0 0 -1.5875,-1.5875 z m -0.016,0.52917 a 1.0583334,1.0583334 0 0 1 0.016,0 1.0583334,1.0583334 0 0 1 1.05834,1.05833 1.0583334,1.0583334 0 0 1 -1.05834,1.05833 1.0583334,1.0583334 0 0 1 -1.05833,-1.05833 1.0583334,1.0583334 0 0 1 1.04231,-1.05833 z"
         inkscape:export-xdpi="96.000244"
         inkscape:export-ydpi="96.000244" />
      <circle
         style="fill:#ffffff;fill-opacity:1;stroke-width:1.99972;stroke-linecap:round;stroke-linejoin:round"
         id="circle858"
         cx="113.85271"
         cy="136.86676"
         r="0.5291667"
         inkscape:export-xdpi="96.000244"
         inkscape:export-ydpi="96.000244" />
    </g>
  </g>
</svg>
